#!OML:ASF E:\Style6\Style6.ASF
:FULLY-SPECIFIED
:DEGREES
3675
root 0.407211 18.1027 -0.322481 41.8016 1.29032 -1.47333
lowerback 23.3329 -2.46552 8.22392
upperback 7.27442 -1.13622 2.7391
thorax -5.05696 -0.557024 -1.40019
lowerneck 8.68503 9.41147 3.48645
upperneck -17.524 10.5817 -18.7194
head -5.41002 6.62082 -7.25167
rclavicle 1.03368e-014 2.38542e-015
rhumerus 28.677 16.518 -82.1838
rradius 28.7261
rwrist 38.6015
rhand -4.77224 4.14997
rfingers 7.12502
rthumb 21.0122 -24.7317
lclavicle 1.03368e-014 2.38542e-015
lhumerus 33.3048 -24.0376 69.4955
lradius 30.0776
lwrist -12.6446
lhand -4.83807 22.6011
lfingers 7.12502
lthumb 20.949 51.4898
rfemur -44.9935 6.14807 13.4411
rtibia -4.29375e-014
rfoot -5.40249 -23.9691
rtoes 39.2766
lfemur -56.8375 -24.873 9.84725
ltibia 16.4737
lfoot -10.5115 40.5225
ltoes 14.4431
3676
root 0.404624 18.0972 -0.330505 42.0721 1.43407 -1.32656
lowerback 23.2055 -2.50169 8.1462
upperback 7.20417 -1.20768 2.72209
thorax -5.07623 -0.592456 -1.35716
lowerneck 8.79458 9.27242 3.41652
upperneck -17.9877 10.3218 -18.7376
head -5.6075 6.52191 -7.28059
rclavicle -3.97569e-016 1.46107e-014
rhumerus 28.6217 16.5511 -82.2006
rradius 28.8993
rwrist 38.5152
rhand -4.58818 4.14062
rfingers 7.12502
rthumb 21.1891 -24.7214
lclavicle -3.97569e-016 1.46107e-014
lhumerus 33.3432 -24.0215 69.3959
lradius 30.1617
lwrist -12.653
lhand -4.82112 22.5906
lfingers 7.12502
lthumb 20.9653 51.4775
rfemur -45.2596 5.9102 13.3994
rtibia -1.74931e-014
rfoot -5.55922 -23.9433
rtoes 39.7311
lfemur -57.1206 -24.5998 9.67428
ltibia 16.4233
lfoot -9.68476 40.2407
ltoes 13.5225
3677
root 0.403638 18.0925 -0.33226 42.2694 1.49418 -1.25781
lowerback 23.1061 -2.49886 8.05793
upperback 7.17302 -1.23195 2.714
thorax -5.0621 -0.604026 -1.31156
lowerneck 8.78636 9.13381 3.16436
upperneck -18.4046 10.0706 -18.5567
head -5.79401 6.41585 -7.20507
rclavicle 1.39149e-014 -2.78299e-014
rhumerus 28.6202 16.5915 -82.1529
rradius 29.0418
rwrist 38.4767
rhand -4.508 4.12126
rfingers 7.12502
rthumb 21.2661 -24.7321
lclavicle 1.39149e-014 -2.78299e-014
lhumerus 33.3659 -23.9939 69.3604
lradius 30.2915
lwrist -12.6713
lhand -4.74663 22.6824
lfingers 7.12502
lthumb 21.0368 51.5614
rfemur -45.4583 5.79408 13.367
rtibia -1.31198e-014
rfoot -5.67648 -23.9034
rtoes 40.009
lfemur -57.3447 -24.4758 9.65986
ltibia 16.3937
lfoot -9.26645 40.1965
ltoes 12.8089
3678
root 0.406798 18.0911 -0.329299 42.356 1.60815 -1.31335
lowerback 23.0717 -2.51802 8.19136
upperback 7.1712 -1.23037 2.71622
thorax -5.04742 -0.602684 -1.38537
lowerneck 8.71723 9.00043 2.6983
upperneck -18.8213 9.83092 -18.1487
head -5.99628 6.30777 -7.01776
rclavicle -2.22639e-014 4.47266e-015
rhumerus 28.6049 16.6549 -82.0158
rradius 29.1912
rwrist 38.3772
rhand -4.48591 4.10612
rfingers 7.12502
rthumb 21.2873 -24.7448
lclavicle -2.22639e-014 4.47266e-015
lhumerus 33.428 -24.1057 69.2396
lradius 30.3911
lwrist -12.5728
lhand -4.6327 22.7711
lfingers 7.12502
lthumb 21.1463 51.6379
rfemur -45.522 5.73893 13.4777
rtibia 5.84427e-014
rfoot -5.71298 -23.8849
rtoes 40.0575
lfemur -57.4221 -24.4079 9.74372
ltibia 16.3648
lfoot -8.989 40.1707
ltoes 12.276
3679
root 0.409598 18.0905 -0.32613 42.4408 1.78111 -1.40285
lowerback 23.0476 -2.55439 8.37763
upperback 7.15459 -1.23676 2.71913
thorax -5.05516 -0.606016 -1.4854
lowerneck 8.7002 8.89015 2.49706
upperneck -19.2405 9.63168 -17.9637
head -6.17184 6.22383 -6.94803
rclavicle 5.96354e-015 2.44505e-014
rhumerus 28.5494 16.7288 -81.9054
rradius 29.3195
rwrist 38.3575
rhand -4.58059 4.07986
rfingers 7.12502
rthumb 21.1963 -24.7813
lclavicle 5.96354e-015 2.44505e-014
lhumerus 33.468 -24.2869 69.029
lradius 30.4623
lwrist -12.2742
lhand -4.80092 22.7546
lfingers 7.12502
lthumb 20.9847 51.6394
rfemur -45.5633 5.66974 13.6589
rtibia -5.36719e-014
rfoot -5.82827 -23.8287
rtoes 40.2272
lfemur -57.5071 -24.3224 9.86729
ltibia 16.3536
lfoot -8.27738 40.1273
ltoes 10.763
3680
root 0.411939 18.0901 -0.322418 42.5016 1.86046 -1.45826
lowerback 23.0457 -2.55845 8.4323
upperback 7.1602 -1.23219 2.69377
thorax -5.04848 -0.603204 -1.54508
lowerneck 8.72551 8.75024 2.59564
upperneck -19.7144 9.38658 -18.0595
head -6.34104 6.12586 -7.0214
rclavicle -1.39149e-014 -3.57812e-014
rhumerus 28.5549 16.9104 -81.7329
rradius 29.4385
rwrist 38.1112
rhand -4.71528 3.9074
rfingers 7.12502
rthumb 21.067 -24.9682
lclavicle -1.39149e-014 -3.57812e-014
lhumerus 33.5816 -24.3444 68.8744
lradius 30.4431
lwrist -12.1001
lhand -4.95243 22.6847
lfingers 7.12502
lthumb 20.8391 51.5855
rfemur -45.5973 5.64554 13.7504
rtibia 6.59965e-014
rfoot -5.82385 -23.8381
rtoes 40.2206
lfemur -57.6042 -24.3636 10.0593
ltibia 16.3673
lfoot -8.49028 40.1827
ltoes 11.2071
3681
root 0.414767 18.0908 -0.317968 42.5776 1.94802 -1.39969
lowerback 23.0003 -2.60204 8.41297
upperback 7.16472 -1.29819 2.66233
thorax -5.02689 -0.63337 -1.55157
lowerneck 8.69261 8.60762 2.66823
upperneck -20.1733 9.13856 -18.1322
head -6.49947 6.02337 -7.07847
rclavicle -1.90833e-014 -1.95803e-014
rhumerus 28.576 17.1369 -81.6281
rradius 29.5388
rwrist 37.8134
rhand -4.88428 3.8512
rfingers 7.12502
rthumb 20.9046 -25.0424
lclavicle -1.90833e-014 -1.95803e-014
lhumerus 33.636 -24.1873 68.9434
lradius 30.3424
lwrist -12.2374
lhand -5.02752 22.5688
lfingers 7.12502
lthumb 20.767 51.4775
rfemur -45.6257 5.52867 13.7557
rtibia 1.00585e-013
rfoot -5.94223 -23.8069
rtoes 40.4241
lfemur -57.7565 -24.4932 10.2097
ltibia 16.3554
lfoot -8.82591 40.247
ltoes 11.7598
3682
root 0.416107 18.0908 -0.312946 42.6279 2.09845 -1.45384
lowerback 22.979 -2.63337 8.4668
upperback 7.16063 -1.32515 2.69814
thorax -5.02265 -0.646223 -1.53595
lowerneck 8.6462 8.49161 2.59577
upperneck -20.5571 8.93115 -18.0898
head -6.64396 5.93699 -7.07011
rclavicle 5.96354e-016 2.99171e-014
rhumerus 28.5899 17.3393 -81.4818
rradius 29.621
rwrist 37.5537
rhand -4.96961 3.88883
rfingers 7.12502
rthumb 20.8226 -25.0138
lclavicle 5.96354e-016 2.99171e-014
lhumerus 33.6119 -24.0611 69.0945
lradius 30.2375
lwrist -12.3849
lhand -5.12196 22.496
lfingers 7.12502
lthumb 20.6762 51.4147
rfemur -45.6332 5.45913 13.9014
rtibia -7.35503e-014
rfoot -5.93761 -23.767
rtoes 40.3389
lfemur -57.7946 -24.4657 10.3214
ltibia 16.3103
lfoot -8.76051 40.1933
ltoes 11.7157
3683
root 0.416992 18.0897 -0.309775 42.646 2.09646 -1.42663
lowerback 23.0432 -2.62604 8.35369
upperback 7.14588 -1.33354 2.67351
thorax -5.07179 -0.651837 -1.49504
lowerneck 8.67024 8.38422 2.509
upperneck -20.9684 8.73765 -18.0005
head -6.81253 5.85727 -7.05106
rclavicle -2.22639e-014 2.28602e-014
rhumerus 28.5407 17.4976 -81.3869
rradius 29.7139
rwrist 37.3883
rhand -5.04423 3.88003
rfingers 7.12502
rthumb 20.7509 -25.0305
lclavicle -2.22639e-014 2.28602e-014
lhumerus 33.5952 -24.0856 69.0817
lradius 30.2085
lwrist -12.2242
lhand -5.25129 22.5581
lfingers 7.12502
lthumb 20.552 51.4903
rfemur -45.6366 5.43397 13.873
rtibia 1.07344e-014
rfoot -6.03671 -23.7435
rtoes 40.541
lfemur -57.8188 -24.5594 10.403
ltibia 16.2414
lfoot -8.57277 40.3377
ltoes 11.4595
3684
root 0.41947 18.0892 -0.306613 42.6739 2.06839 -1.35239
lowerback 23.0951 -2.64064 8.23319
upperback 7.11375 -1.37396 2.61404
thorax -5.13726 -0.673195 -1.479
lowerneck 8.65841 8.31151 2.45576
upperneck -21.3574 8.60913 -17.8811
head -6.95974 5.80153 -7.0256
rclavicle 4.96962e-015 1.55052e-014
rhumerus 28.3934 17.6161 -81.3899
rradius 29.8496
rwrist 37.3126
rhand -5.0215 3.88097
rfingers 7.12502
rthumb 20.7728 -25.0271
lclavicle 4.96962e-015 1.55052e-014
lhumerus 33.523 -24.0542 69.0961
lradius 30.1686
lwrist -12.1546
lhand -5.33973 22.6491
lfingers 7.12502
lthumb 20.467 51.5904
rfemur -45.6436 5.38253 13.7808
rtibia -4.05521e-014
rfoot -6.21212 -23.6612
rtoes 40.9363
lfemur -57.882 -24.7374 10.5153
ltibia 16.1697
lfoot -8.69348 40.5375
ltoes 11.6312
3685
root 0.420927 18.0865 -0.303805 42.7388 2.08889 -1.30559
lowerback 23.1289 -2.65109 8.15827
upperback 7.05336 -1.39718 2.58698
thorax -5.22286 -0.687681 -1.4579
lowerneck 8.56691 8.25472 2.43583
upperneck -21.6624 8.52463 -17.7414
head -7.05949 5.75659 -6.98872
rclavicle 2.18663e-015 -4.30369e-014
rhumerus 28.2313 17.6359 -81.4308
rradius 29.9396
rwrist 37.3817
rhand -5.01456 3.92461
rfingers 7.12502
rthumb 20.7794 -24.9828
lclavicle 2.18663e-015 -4.30369e-014
lhumerus 33.4734 -23.9855 69.1978
lradius 30.044
lwrist -12.2897
lhand -5.10976 22.6298
lfingers 7.12502
lthumb 20.688 51.5472
rfemur -45.6909 5.31955 13.7467
rtibia 3.81667e-014
rfoot -6.36648 -23.5756
rtoes 41.2736
lfemur -57.9878 -24.889 10.6981
ltibia 16.0825
lfoot -9.02331 40.7068
ltoes 12.2918
